<?xml version="1.0" encoding="UTF-8"?>
<svg version="1.1" xmlns="http://www.w3.org/2000/svg" width="512" height="512">
<path d="M0 0 C6.22290823 4.97580718 10.40449273 12.57105783 11.75 20.375 C13.34565666 37.67790188 4.50076524 49.56060252 -5.93334961 62.45532227 C-7.50507201 64.3235345 -7.50507201 64.3235345 -7.09375 66.8125 C-6.20472702 69.51249571 -5.09533962 71.87204258 -3.75 74.375 C0.71809116 82.68772775 0.98079633 91.86888876 -1.4375 100.9375 C-4.48172321 109.24479924 -10.16076324 116.02542886 -15.46240234 123.00195312 C-18.37574196 126.86942938 -21.18098945 130.81356638 -24 134.75 C-37.89756003 154.02256003 -37.89756003 154.02256003 -41.25 157.375 C-48.1773743 158.04539106 -48.1773743 158.04539106 -51.75 155.8125 C-53.86063385 152.38272 -53.68579055 150.37449828 -53.25 146.375 C-51.84529684 143.52130124 -49.99064707 141.08335061 -48.0625 138.5625 C-47.52584717 137.83256836 -46.98919434 137.10263672 -46.4362793 136.35058594 C-45.29863243 134.8042954 -44.15433705 133.26287733 -43.00390625 131.72607422 C-40.14398318 127.89240786 -37.35745118 124.00614074 -34.5625 120.125 C-34.02109375 119.37605469 -33.4796875 118.62710938 -32.921875 117.85546875 C-29.6110412 113.27494626 -26.30985033 108.68830917 -23.0625 104.0625 C-22.36769531 103.07636719 -21.67289062 102.09023437 -20.95703125 101.07421875 C-17.21404617 95.15567712 -16.57146582 90.36138829 -17.75 83.4375 C-17.915 82.756875 -18.08 82.07625 -18.25 81.375 C-22.36493947 85.22950027 -25.5077316 89.35732292 -28.6875 94 C-33.15445769 100.4278383 -37.71369069 106.77414788 -42.375 113.0625 C-50.26179282 123.70533878 -50.26179282 123.70533878 -57.89022827 134.53405762 C-59.25 136.375 -59.25 136.375 -61.20669556 138.56848145 C-67.79890935 146.41783086 -68.40041012 153.08648906 -68.25 163.0625 C-68.25811262 164.45770792 -68.26980882 165.85289978 -68.28515625 167.24804688 C-68.30852779 170.62523409 -68.29602594 173.99816648 -68.25 177.375 C-67.51021408 177.36611755 -66.77042816 177.35723511 -66.00822449 177.3480835 C-58.99210549 177.26750301 -51.97615026 177.20681698 -44.95969677 177.16775131 C-41.35354347 177.14699101 -37.74777665 177.11888949 -34.1418457 177.07324219 C-30.65344326 177.02936557 -27.16540946 177.00577631 -23.67675209 176.99549103 C-21.71660309 176.98464413 -19.75659974 176.95348681 -17.79667664 176.92181396 C-5.19872836 176.91869529 5.49887537 180.45412462 14.72265625 189.2578125 C23.22766859 198.46706154 26.07528794 208.49640167 25.99050903 220.84094238 C25.99307231 222.22326907 25.99307231 222.22326907 25.99568737 223.63352156 C25.99896704 226.70432925 25.98800369 229.77491574 25.97705078 232.84570312 C25.97648634 235.05375158 25.97680387 237.2618004 25.97793579 239.46984863 C25.97850901 245.45268817 25.96675957 251.43544732 25.95278788 257.4182682 C25.94027548 263.67495947 25.93910961 269.93165264 25.93673706 276.18835449 C25.93122949 286.68612971 25.91874165 297.1838801 25.90087891 307.68164062 C25.88250423 318.49153497 25.86835551 329.30142131 25.85986328 340.11132812 C25.85933783 340.77831335 25.85881239 341.44529857 25.85827102 342.13249546 C25.85566083 345.4787623 25.85313796 348.82502919 25.85064721 352.17129612 C25.8297487 379.90588457 25.79457567 407.64044021 25.75 435.375 C26.70261719 435.32859375 27.65523438 435.2821875 28.63671875 435.234375 C29.89097656 435.19828125 31.14523437 435.1621875 32.4375 435.125 C33.67886719 435.07859375 34.92023438 435.0321875 36.19921875 434.984375 C40.33140266 435.43896069 41.90510856 436.39719562 44.75 439.375 C45.38110352 442.50024414 45.38110352 442.50024414 45.37890625 446.16015625 C45.38131821 446.81648544 45.38373016 447.47281464 45.38621521 448.14903259 C45.38523747 449.53846267 45.37186037 450.92793204 45.34692383 452.31713867 C45.31298714 454.4074945 45.32616612 456.49352479 45.34570312 458.58398438 C45.33467243 471.13130774 42.92785752 480.12258481 34.109375 489.21484375 C23.96372514 498.5038245 13.08039403 499.9154857 -0.2355957 499.87597656 C-2.57559721 499.8749945 -4.91241533 499.91691986 -7.25195312 499.9609375 C-8.74738906 499.96613877 -10.24283628 499.96883279 -11.73828125 499.96875 C-12.43311111 499.98514526 -13.12794098 500.00154053 -13.84382629 500.01843262 C-17.58275965 499.96501722 -18.98774671 499.63254497 -21.69775391 496.97119141 C-23.29129424 494.30593379 -23.7441236 493.26545255 -23.3125 490.25 C-23.24160156 489.58742188 -23.17070312 488.92484375 -23.09765625 488.2421875 C-21.80828442 485.40200438 -20.01945227 484.73216354 -17.25 483.375 C-14.05541992 483.00610352 -14.05541992 483.00610352 -10.48046875 483.00390625 C-9.17916016 482.98650391 -7.87785156 482.96910156 -6.53710938 482.95117188 C-4.49010283 482.94113873 -2.44327026 482.93749517 -0.39624023 482.93920898 C11.944377 483.06417688 11.944377 483.06417688 22.2565918 476.92797852 C29.36910608 468.85613135 28.34913823 463.28232502 29.75 451.375 C-36.58 451.375 -102.91 451.375 -171.25 451.375 C-171.25 453.685 -171.25 455.995 -171.25 458.375 C-173.00450562 464.83896808 -177.64358356 469.89849373 -183.25 473.375 C-189.24434032 475.87695496 -194.66391914 476.82530161 -201.125 476.7734375 C-201.93437012 476.77630768 -202.74374023 476.77917786 -203.57763672 476.78213501 C-205.2750723 476.78416064 -206.97253203 476.77873689 -208.66992188 476.76611328 C-211.24402878 476.75003729 -213.81656598 476.76601279 -216.390625 476.78515625 C-218.05208674 476.78317355 -219.71354752 476.77932932 -221.375 476.7734375 C-222.13151855 476.77951019 -222.88803711 476.78558289 -223.66748047 476.7918396 C-232.2587279 476.68070915 -239.26386436 474.26305275 -245.51953125 468.33203125 C-250.49232523 462.70817169 -251.25 458.99943184 -251.25 451.375 C-317.58 451.375 -383.91 451.375 -452.25 451.375 C-451.05028717 467.57157543 -451.05028717 467.57157543 -442.75 478.75 C-438.04209562 481.81013785 -434.31805218 482.62515469 -428.71412659 482.62833309 C-428.06827335 482.63143036 -427.42242011 482.63452764 -426.75699556 482.63771877 C-424.58994049 482.64568845 -422.42316113 482.63943517 -420.25610352 482.63328552 C-418.68792577 482.63613995 -417.11974942 482.63987785 -415.55157566 482.64442402 C-411.23990241 482.65441555 -406.92831042 482.65202878 -402.61663103 482.64769709 C-397.96762663 482.64522316 -393.31864372 482.65428613 -388.66964722 482.66207886 C-380.61300286 482.67412937 -372.55637829 482.67923207 -364.49972534 482.67996025 C-352.84567177 482.68128494 -341.19166632 482.69638792 -329.53762972 482.71545542 C-310.6230742 482.746305 -291.70851746 482.77046749 -272.79394531 482.78833008 C-271.66165076 482.78940276 -270.52935621 482.79047544 -269.3627497 482.79158062 C-256.72698231 482.80340337 -244.09121444 482.81360842 -231.45544434 482.82202148 C-226.87231444 482.82509543 -222.28918456 482.82818421 -217.70605469 482.83129883 C-216.575137 482.83206417 -215.44421932 482.83282951 -214.2790314 482.83361804 C-195.43587198 482.84669014 -176.59274739 482.87131586 -157.74961376 482.90504223 C-146.1219061 482.92535496 -134.49427289 482.93561849 -122.86654735 482.93305302 C-114.90281181 482.93201956 -106.93913521 482.94162891 -98.97542024 482.95969205 C-94.37736998 482.96975697 -89.77945007 482.97484383 -85.18139267 482.96692467 C-80.97460688 482.95976534 -76.76807541 482.96628419 -72.56132209 482.98381007 C-71.03717093 482.98770411 -69.5129967 482.9864969 -67.98885548 482.97975319 C-65.92088625 482.97132687 -63.85378986 482.98125513 -61.78587341 482.99582577 C-60.63613257 482.99664022 -59.48639174 482.99745468 -58.30181026 482.99829382 C-54.88841193 483.41963333 -52.99485851 484.33602142 -50.25 486.375 C-49.40234375 488.2421875 -49.40234375 488.2421875 -49.1875 490.25 C-49.04634766 491.23613281 -49.04634766 491.23613281 -48.90234375 492.2421875 C-49.4359515 495.51578109 -50.93975959 497.04155946 -53.25 499.375 C-56.19635588 500.00059515 -56.19635588 500.00059515 -59.70853519 500.00141239 C-60.35819051 500.00838 -61.00784582 500.01534761 -61.67718765 500.02252635 C-63.86376112 500.0398325 -66.04857711 500.02137533 -68.23512268 500.00318909 C-69.81466683 500.00823212 -71.39420526 500.01545907 -72.9737305 500.02468723 C-77.32185193 500.04367274 -81.66941342 500.0313404 -86.01752102 500.0139643 C-90.70417044 500.00062597 -95.39073598 500.01601502 -100.07737732 500.02778625 C-109.26348001 500.0461967 -118.44937044 500.03762655 -127.63546658 500.01969803 C-135.10335161 500.00568492 -142.57117893 500.00177647 -150.03907585 500.0051403 C-151.10109666 500.00561775 -152.16311746 500.00609519 -153.25732071 500.0065871 C-155.41473955 500.00761342 -157.57215837 500.00866878 -159.72957718 500.00975286 C-178.8230972 500.01832757 -197.91651469 500.00162321 -217.01000977 499.97192383 C-235.53251458 499.943113 -254.05487151 499.93598845 -272.57739258 499.95141602 C-292.74130224 499.9681877 -312.90514161 499.97220028 -333.06905311 499.95470566 C-335.22077333 499.95286128 -337.37249356 499.95102655 -339.52421379 499.94920158 C-340.58290435 499.94828949 -341.64159491 499.9473774 -342.732367 499.94643768 C-350.18625541 499.94083612 -357.6401095 499.94413619 -365.09399605 499.95074654 C-374.18563476 499.95848899 -383.27712802 499.95169514 -392.36873747 499.9265715 C-397.00603574 499.91409436 -401.64310782 499.90790804 -406.28041458 499.91911316 C-410.53018663 499.92918762 -414.77950857 499.9206279 -419.02922606 499.89753198 C-420.56225892 499.892392 -422.09533244 499.89389951 -423.62834734 499.90292663 C-437.1111768 499.97568086 -447.65237096 497.53988244 -457.8125 488.25 C-466.64285116 479.18469493 -467.49923776 469.05611996 -467.60009766 457.04833984 C-467.61670109 455.59928374 -467.64404934 454.15031098 -467.68212891 452.70166016 C-467.73692419 450.60276241 -467.75876413 448.5057666 -467.7734375 446.40625 C-467.79325684 445.15392578 -467.81307617 443.90160156 -467.83349609 442.61132812 C-467.25 439.375 -467.25 439.375 -465.17431641 436.95117188 C-461.51543359 434.97907741 -459.06984413 434.97051985 -454.9375 435.125 C-453.68324219 435.16109375 -452.42898438 435.1971875 -451.13671875 435.234375 C-450.18410156 435.28078125 -449.23148437 435.3271875 -448.25 435.375 C-448.25666183 434.79506287 -448.26332367 434.21512573 -448.27018738 433.61761475 C-448.3365432 427.58318626 -448.38180159 421.54886137 -448.41479492 415.51416016 C-448.42988395 413.26183869 -448.45035755 411.00954661 -448.47631836 408.75732422 C-448.51269593 405.52043404 -448.5297253 402.28393225 -448.54296875 399.046875 C-448.56619453 397.53574127 -448.56619453 397.53574127 -448.58988953 395.99407959 C-448.59011612 395.05340637 -448.59034271 394.11273315 -448.59057617 393.14355469 C-448.59723801 392.31748718 -448.60389984 391.49141968 -448.61076355 390.64031982 C-448.15707967 387.79153124 -447.23692649 386.44530947 -445.25 384.375 C-441.27655839 383.27126622 -439.16000228 382.95956417 -435.375 384.6875 C-433.25 386.375 -433.25 386.375 -432.25 388.375 C-432.16022272 389.88664392 -432.13242567 391.40220179 -432.13647461 392.91650391 C-432.13655014 393.85732819 -432.13662567 394.79815247 -432.13670349 395.76748657 C-432.14186478 396.78523163 -432.14702606 397.80297668 -432.15234375 398.8515625 C-432.1537587 399.89194672 -432.15517365 400.93233093 -432.15663147 402.00424194 C-432.16224134 405.33619021 -432.17479553 408.66807195 -432.1875 412 C-432.19251373 414.25520736 -432.19707686 416.51041578 -432.20117188 418.765625 C-432.21221398 424.30210907 -432.22948525 429.83854325 -432.25 435.375 C-427.63 435.375 -423.01 435.375 -418.25 435.375 C-418.25368717 434.24578786 -418.25737434 433.11657572 -418.26117325 431.95314503 C-418.34991308 404.49571039 -418.41567525 377.03829432 -418.45724869 349.58074665 C-418.4778869 336.3025586 -418.50603167 323.0244652 -418.55175781 309.74633789 C-418.59158689 298.17512217 -418.61742365 286.60397498 -418.62635398 275.03269261 C-418.63157535 268.9039599 -418.64387386 262.77542327 -418.67292023 256.64675331 C-418.70002707 250.88071433 -418.70845448 245.11495262 -418.70243073 239.34885597 C-418.70353307 237.230428 -418.71151489 235.11199096 -418.7268219 232.99361801 C-418.74667549 230.10484374 -418.74195586 227.21712114 -418.73101807 224.32832336 C-418.74266943 223.48687895 -418.7543208 222.64543453 -418.76632524 221.7784918 C-418.72546297 217.79548144 -418.52646498 215.82303667 -416.38524628 212.35299683 C-413.64168401 209.81148323 -412.26676396 209.76640748 -408.56347656 209.80737305 C-406.85215546 209.80793953 -406.85215546 209.80793953 -405.10626221 209.80851746 C-403.26702179 209.8472271 -403.26702179 209.8472271 -401.390625 209.88671875 C-400.13111023 209.89379349 -398.87159546 209.90086823 -397.57391357 209.90815735 C-394.23264644 209.93140124 -390.89309676 209.97628188 -387.55230713 210.03167725 C-384.14049084 210.08291791 -380.7284968 210.10568144 -377.31640625 210.13085938 C-370.62706896 210.18600611 -363.93876981 210.27232429 -357.25 210.375 C-357.25 204.765 -357.25 199.155 -357.25 193.375 C-365.04266124 193.39447592 -372.83420204 193.44636843 -380.62646484 193.52758789 C-383.27418912 193.55070577 -385.92200454 193.56514891 -388.56982422 193.57055664 C-392.38826903 193.57989094 -396.20529231 193.62098471 -400.0234375 193.66796875 C-401.78341568 193.66206978 -401.78341568 193.66206978 -403.57894897 193.65605164 C-411.10177997 193.78794275 -417.01393105 194.98436236 -423.25 199.375 C-428.88300182 205.23500682 -431.4952541 211.21713523 -431.50828552 219.42251587 C-431.51511353 220.61137894 -431.52194153 221.800242 -431.52897644 223.02513123 C-431.52642349 224.31572952 -431.52387054 225.60632782 -431.52124023 226.93603516 C-431.52563101 228.3195781 -431.53093444 229.7031184 -431.53707886 231.08665466 C-431.54854983 234.057701 -431.55403611 237.0286763 -431.55496025 239.99974442 C-431.55690505 244.69767972 -431.57497893 249.39546837 -431.59571838 254.09335327 C-431.64484313 265.75813776 -431.67581575 277.42296182 -431.69702148 289.08782959 C-431.7135387 298.16163056 -431.73632178 307.23530513 -431.78004223 316.30902135 C-431.80183056 320.97948682 -431.80987547 325.6497122 -431.80764949 330.320225 C-431.80931496 333.22346321 -431.82335473 336.12654421 -431.84086227 339.02972603 C-431.8491392 341.0184429 -431.84252605 343.00720424 -431.835495 344.9959259 C-431.84514282 346.17914932 -431.85479065 347.36237274 -431.86473083 348.58145142 C-431.86774783 350.12390502 -431.86774783 350.12390502 -431.87082577 351.6975193 C-432.31068072 354.80348761 -433.04964333 356.16207039 -435.25 358.375 C-439.22344161 359.47873378 -441.33999772 359.79043583 -445.125 358.0625 C-447.25 356.375 -447.25 356.375 -448.25 354.375 C-448.35000084 352.50974174 -448.3850976 350.64087855 -448.39044189 348.77294922 C-448.39900711 346.98566658 -448.39900711 346.98566658 -448.40774536 345.16227722 C-448.40886322 343.84802261 -448.40998108 342.53376801 -448.41113281 341.1796875 C-448.41576042 339.78676725 -448.420785 338.39384828 -448.42617798 337.00093079 C-448.43931641 333.20917688 -448.44575066 329.41744069 -448.45018864 325.62566757 C-448.45311926 323.25464388 -448.45722422 320.88362502 -448.46169281 318.51260376 C-448.47537643 311.08874439 -448.48503677 303.66489608 -448.4888947 296.24102497 C-448.49336671 287.6827986 -448.51087093 279.12473264 -448.5398953 270.56655502 C-448.5615634 263.94645235 -448.57160184 257.3263946 -448.57293582 250.70625687 C-448.57398091 246.75550422 -448.57982443 242.80490218 -448.59775543 238.85418701 C-448.61432324 235.13101068 -448.61634979 231.40809669 -448.60761642 227.68489647 C-448.6064876 225.68056189 -448.62014071 223.67623569 -448.6343689 221.67195129 C-448.57698209 209.16157647 -445.7557049 198.61624269 -437.24609375 189.14453125 C-429.52556893 181.78310061 -420.18444122 177.238186 -409.47167969 177.26147461 C-408.3107782 177.26155014 -407.14987671 177.26162567 -405.95379639 177.26170349 C-404.70576233 177.26686478 -403.45772827 177.27202606 -402.171875 177.27734375 C-400.24930878 177.27946617 -400.24930878 177.27946617 -398.28790283 177.28163147 C-394.8881636 177.28544099 -391.4884674 177.29525786 -388.08874512 177.30633545 C-384.616461 177.31658326 -381.1441699 177.3211363 -377.671875 177.32617188 C-370.86456571 177.33688159 -364.05728492 177.35393916 -357.25 177.375 C-357.26571045 176.4684668 -357.2814209 175.56193359 -357.29760742 174.62792969 C-357.34928972 171.20599439 -357.38661492 167.78448459 -357.41479492 164.36230469 C-357.42971429 162.89218527 -357.45005727 161.422109 -357.47631836 159.95214844 C-357.78765991 142.05306185 -354.27557359 126.83393083 -341.53125 113.55859375 C-331.07923032 103.55400642 -318.36631634 97.96535584 -303.83840942 98.19073486 C-302.62592476 98.19686314 -302.62592476 98.19686314 -301.38894546 98.20311522 C-298.70071045 98.2187974 -296.01282172 98.24870643 -293.32470703 98.27832031 C-291.38904528 98.29195197 -289.45337558 98.30449167 -287.5177002 98.31602478 C-283.35876173 98.34174734 -279.19989986 98.37246672 -275.04101944 98.40625763 C-268.4594892 98.45694603 -261.87805282 98.47952119 -255.2963562 98.49505615 C-254.18397524 98.49777346 -253.07159428 98.50049077 -251.9255048 98.50329041 C-249.65144498 98.5087231 -247.37738493 98.51405828 -245.10332465 98.51929808 C-229.78829953 98.55500378 -214.47411729 98.60606299 -199.15966797 98.74853516 C-188.81758234 98.84454398 -178.47659076 98.89092896 -168.13404739 98.87993121 C-162.66546669 98.87606274 -157.19959492 98.89736346 -151.7315712 98.97928619 C-146.58725481 99.05592437 -141.44691833 99.0668846 -136.30221558 99.02832222 C-134.4195903 99.02575693 -132.53675186 99.04698855 -130.65472031 99.09433556 C-121.05813111 99.6072281 -121.05813111 99.6072281 -112.52321577 95.9975462 C-109.01664 92.20516173 -106.66380221 87.91127178 -104.25 83.375 C-103.1576848 81.79738914 -102.04409627 80.23364315 -100.88671875 78.703125 C-100.39945312 78.02894531 -99.9121875 77.35476562 -99.41015625 76.66015625 C-98.68119141 75.65275391 -98.68119141 75.65275391 -97.9375 74.625 C-96.82681261 73.08854911 -95.71613584 71.55209056 -94.60546875 70.015625 C-94.05036621 69.24798828 -93.49526367 68.48035156 -92.92333984 67.68945312 C-90.19736861 63.91906981 -87.47378466 60.14696306 -84.75 56.375 C-83.66667856 54.87499141 -82.58334521 53.37499142 -81.5 51.875 C-80.96375 51.1325 -80.4275 50.39 -79.875 49.625 C-78.25 47.375 -76.625 45.125 -75 42.875 C-74.46334717 42.13185547 -73.92669434 41.38871094 -73.3737793 40.62304688 C-72.29484799 39.12931669 -71.21558584 37.63582543 -70.13598633 36.14257812 C-67.35748338 32.29858372 -64.58557405 28.45008497 -61.82421875 24.59375 C-58.65489548 20.17122727 -55.46003639 15.76803348 -52.25 11.375 C-51.12271484 9.82039063 -51.12271484 9.82039063 -49.97265625 8.234375 C-37.38240345 -8.41966237 -17.45133734 -11.59032216 0 0 Z M-39.4765625 21.01757812 C-40.02054687 21.81615234 -40.56453125 22.61472656 -41.125 23.4375 C-41.6921875 24.23994141 -42.259375 25.04238281 -42.84375 25.86914062 C-45.23665059 29.28554491 -47.45570934 32.60169673 -49.25 36.375 C-40.62825434 43.57744109 -31.4673882 49.96681231 -22.25 56.375 C-19.49232271 53.73626227 -17.20503952 51.08160891 -15.05078125 47.93359375 C-14.19709961 46.68739258 -14.19709961 46.68739258 -13.32617188 45.41601562 C-12.74416016 44.55685547 -12.16214844 43.69769531 -11.5625 42.8125 C-10.96888672 41.94947266 -10.37527344 41.08644531 -9.76367188 40.19726562 C-5.66082586 34.17632741 -3.49172674 29.88619743 -4.25 22.375 C-6.2499797 16.49270677 -10.71584689 12.14207655 -16.25 9.375 C-18.41603068 9.06145907 -18.41603068 9.06145907 -20.875 9 C-22.10089844 8.92652344 -22.10089844 8.92652344 -23.3515625 8.8515625 C-30.78538104 10.19405803 -35.25908765 15.07074151 -39.4765625 21.01757812 Z M-59.25 49.375 C-60.73278088 51.1624193 -62.15621327 52.96579313 -63.5625 54.8125 C-64.0061792 55.39233643 -64.4498584 55.97217285 -64.90698242 56.56958008 C-69.4659413 62.57771296 -73.78998842 68.74604377 -78.1171875 74.921875 C-81.26802554 79.41404159 -84.47037609 83.86764317 -87.6875 88.3125 C-88.22737549 89.05846436 -88.76725098 89.80442871 -89.32348633 90.57299805 C-90.41838044 92.08513427 -91.51351422 93.59709699 -92.60888672 95.10888672 C-95.32648173 98.861448 -98.03794473 102.61843419 -100.75 106.375 C-101.83330362 107.87502146 -102.91663696 109.37502146 -104 110.875 C-104.53625 111.6175 -105.0725 112.36 -105.625 113.125 C-111.58333333 121.375 -117.54166667 129.625 -123.5 137.875 C-124.3046167 138.98911255 -124.3046167 138.98911255 -125.12548828 140.12573242 C-126.20712268 141.62334254 -127.28882823 143.12090126 -128.37060547 144.6184082 C-131.10552295 148.40455187 -133.83913719 152.19162455 -136.5703125 155.98046875 C-137.11800293 156.739646 -137.66569336 157.49882324 -138.22998047 158.28100586 C-139.31616617 159.78744774 -140.40115175 161.29475577 -141.48486328 162.80297852 C-144.13179562 166.47891289 -146.80658845 170.12736286 -149.546875 173.734375 C-150.06556152 174.42249268 -150.58424805 175.11061035 -151.11865234 175.81958008 C-152.0998479 177.11771611 -153.08938633 178.40960135 -154.08837891 179.6940918 C-155.22110382 181.19812925 -156.24695097 182.7815487 -157.25 184.375 C-155.90719189 188.40342434 -153.24167324 189.76682078 -149.875 192.0625 C-148.59967889 192.94707885 -147.32494681 193.83250748 -146.05078125 194.71875 C-145.41221191 195.16089844 -144.77364258 195.60304687 -144.11572266 196.05859375 C-142.3751611 197.28668953 -140.67293087 198.55046828 -138.98046875 199.84375 C-138.01753906 200.5759375 -137.05460937 201.308125 -136.0625 202.0625 C-135.20269531 202.72636719 -134.34289062 203.39023438 -133.45703125 204.07421875 C-132.72871094 204.50347656 -132.00039063 204.93273437 -131.25 205.375 C-127.34509159 204.07336386 -126.09564958 201.69878685 -123.875 198.4375 C-122.97860562 197.15182677 -122.08143205 195.86669655 -121.18359375 194.58203125 C-120.70776855 193.89705566 -120.23194336 193.21208008 -119.74169922 192.50634766 C-117.18206222 188.84912491 -114.55726377 185.23926731 -111.9375 181.625 C-110.82667022 180.08865206 -109.71599468 178.55219259 -108.60546875 177.015625 C-108.05036621 176.24798828 -107.49526367 175.48035156 -106.92333984 174.68945312 C-104.19736861 170.91906981 -101.47378466 167.14696306 -98.75 163.375 C-97.66667856 161.87499141 -96.58334521 160.37499142 -95.5 158.875 C-94.96375 158.1325 -94.4275 157.39 -93.875 156.625 C-83.58333333 142.375 -73.29166667 128.125 -63 113.875 C-62.19502075 112.76040405 -62.19502075 112.76040405 -61.3737793 111.62329102 C-60.29453876 110.12897045 -59.21527458 108.63466696 -58.13598633 107.14038086 C-55.36483531 103.3036279 -52.59414313 99.46654488 -49.82421875 95.62890625 C-49.26105957 94.84918457 -48.69790039 94.06946289 -48.11767578 93.26611328 C-47.0115573 91.73310571 -45.90702213 90.19895428 -44.80419922 88.66357422 C-42.44973194 85.39029044 -40.08407923 82.13409501 -37.62109375 78.94140625 C-36.50927734 77.48541016 -36.50927734 77.48541016 -35.375 76 C-34.73820312 75.18789062 -34.10140625 74.37578125 -33.4453125 73.5390625 C-32.10865553 71.49561919 -32.10865553 71.49561919 -32.15625 69.3828125 C-33.87582695 66.22616052 -36.70522065 64.57712253 -39.625 62.625 C-40.89755187 61.74799981 -42.16968169 60.87038692 -43.44140625 59.9921875 C-44.07965332 59.55616211 -44.71790039 59.12013672 -45.37548828 58.67089844 C-49.05882987 56.12450913 -52.63683305 53.43377734 -56.23828125 50.7734375 C-57.97851193 49.2798693 -57.97851193 49.2798693 -59.25 49.375 Z M-334.7109375 130.15625 C-338.99512713 136.33244215 -341.36434566 143.78087025 -341.39044189 151.26846313 C-341.39615204 152.25238037 -341.40186218 153.23629761 -341.40774536 154.25003052 C-341.40886322 155.32332611 -341.40998108 156.3966217 -341.41113281 157.50244141 C-341.41609772 158.63788391 -341.42106262 159.77332642 -341.42617798 160.94317627 C-341.4407972 164.70431116 -341.44760208 168.46540384 -341.453125 172.2265625 C-341.45887768 174.84247845 -341.4646354 177.45839438 -341.47039795 180.0743103 C-341.4799663 184.86210485 -341.48586456 189.64989031 -341.4888947 194.43769324 C-341.49336745 201.46492096 -341.51088053 208.49195339 -341.5398953 215.51912177 C-341.56420673 221.62092743 -341.57184348 227.72265315 -341.57357025 233.82450485 C-341.57659051 236.41196123 -341.58459777 238.9994169 -341.59775543 241.58684158 C-341.61488537 245.21510679 -341.61291814 248.84290172 -341.60644531 252.47119141 C-341.62026749 254.06291672 -341.62026749 254.06291672 -341.6343689 255.6867981 C-341.56955578 267.33440701 -338.38834815 278.22605021 -329.98828125 286.640625 C-321.38338111 293.93520283 -313.16544508 296.62620905 -302.03515625 297.6875 C-299.25 298.375 -299.25 298.375 -297.60295105 300.11993408 C-296.05438728 302.70104252 -295.85778039 304.15613927 -295.81762695 307.14355469 C-295.79783279 308.08422791 -295.77803864 309.02490112 -295.75764465 309.99407959 C-295.75125473 311.00150208 -295.74486481 312.00892456 -295.73828125 313.046875 C-295.72033005 314.08442932 -295.70237885 315.12198364 -295.68388367 316.190979 C-295.62973623 319.5022781 -295.59587015 322.81343267 -295.5625 326.125 C-295.52933091 328.37111388 -295.49484164 330.61720868 -295.45898438 332.86328125 C-295.37400729 338.36705791 -295.30567613 343.87085317 -295.25 349.375 C-290.06820338 345.36062063 -286.52499397 341.20265913 -282.79200745 335.83500671 C-271.17324245 319.42440345 -256.39222829 300.33554759 -235.51803493 296.59733582 C-222.94722427 294.81342596 -210.28694448 294.89794954 -197.625 295.3125 C-196.64078442 295.34248329 -195.65656883 295.37246658 -194.64252853 295.40335846 C-184.67019761 295.73027816 -174.70638881 296.27724227 -164.77099609 297.20678711 C-164.048227 297.26298784 -163.3254579 297.31918858 -162.58078671 297.37709236 C-159.37477557 297.71890483 -157.61842723 298.00902359 -155.29336548 300.31861877 C-153.42769086 303.99569869 -154.29340815 306.42108701 -155.25 310.375 C-157.70730484 312.28693906 -159.11645361 312.38120258 -162.23703003 312.23626709 C-163.40903961 312.06258606 -164.58104919 311.88890503 -165.78857422 311.70996094 C-167.14500242 311.52693822 -168.50192809 311.34757569 -169.85925293 311.17132568 C-170.94133278 311.02965595 -170.94133278 311.02965595 -172.04527283 310.88512421 C-210.68664624 306.16051105 -210.68664624 306.16051105 -245.8515625 319.48242188 C-262.52302367 332.6017322 -276.82933048 349.26018425 -289.97058105 365.83526611 C-290.48197695 366.46987385 -290.99337284 367.10448158 -291.52026558 367.75831985 C-292.46362423 368.93471804 -293.39175019 370.1235809 -294.30033684 371.32703781 C-296.73182873 374.34795324 -298.11482208 375.34148265 -301.93057251 376.28759766 C-305.18927243 376.37340101 -306.65042598 376.27468871 -309.25 374.375 C-310.58330029 371.70839943 -310.41159459 369.62611257 -310.45532227 366.64013672 C-310.4852401 364.83849564 -310.4852401 364.83849564 -310.51576233 363.00045776 C-310.53247482 361.69835358 -310.54918732 360.39624939 -310.56640625 359.0546875 C-310.58697625 357.71232462 -310.60797273 356.36996821 -310.62937927 355.02761841 C-310.68459531 351.49311562 -310.73400658 347.95855443 -310.78222656 344.4239502 C-310.83244504 340.81773678 -310.88812929 337.21160828 -310.94335938 333.60546875 C-311.05093517 326.52871951 -311.15238142 319.45189416 -311.25 312.375 C-312.12100342 312.11887939 -312.99200684 311.86275879 -313.8894043 311.59887695 C-315.04351807 311.25300537 -316.19763184 310.90713379 -317.38671875 310.55078125 C-318.52584717 310.21216064 -319.66497559 309.87354004 -320.83862305 309.5246582 C-334.73569007 304.84124815 -344.23794977 296.12418223 -351.25 283.375 C-354.8769933 274.6367683 -356.38193337 266.52047978 -356.56640625 257.13671875 C-356.58505737 256.35542603 -356.6037085 255.5741333 -356.6229248 254.76916504 C-356.69091998 251.86705192 -356.75126115 248.96476354 -356.8125 246.0625 C-356.956875 239.565625 -357.10125 233.06875 -357.25 226.375 C-372.1 226.375 -386.95 226.375 -402.25 226.375 C-402.25 295.345 -402.25 364.315 -402.25 435.375 C-276.19 435.375 -150.13 435.375 -20.25 435.375 C-20.25 366.405 -20.25 297.435 -20.25 226.375 C-36.09 226.375 -51.93 226.375 -68.25 226.375 C-68.4593438 238.99831367 -68.4593438 238.99831367 -68.63793945 251.62207031 C-68.95924968 269.74760231 -72.30892585 284.88903852 -85.25 298.375 C-95.94274144 307.50468289 -109.16728852 313.16075074 -123.375 312.25 C-127.25 311.375 -127.25 311.375 -128.5078125 309.546875 C-129.62630581 306.27381038 -128.98877381 303.69948214 -128.25 300.375 C-125.47352191 297.59852191 -122.48131424 297.62846915 -118.75 297.0625 C-107.9265845 295.21289077 -98.27564289 291.21414139 -91.59375 282.12109375 C-86.07199614 273.47305277 -83.77730932 264.91412624 -83.90942383 254.70263672 C-83.90876671 253.33982323 -83.90876671 253.33982323 -83.90809631 251.94947815 C-83.91016517 248.9843195 -83.93340531 246.01974581 -83.95703125 243.0546875 C-83.96263399 240.98390003 -83.96690088 238.91310856 -83.96989441 236.84231567 C-83.9812898 231.42045912 -84.01071089 225.99884779 -84.04400635 220.5770874 C-84.07482213 215.03319617 -84.08842425 209.48926489 -84.10351562 203.9453125 C-84.13558602 193.08843457 -84.18671758 182.23173776 -84.25 171.375 C-87.85298741 174.91130682 -90.85837365 178.41816567 -93.75 182.5625 C-94.62571151 183.80770721 -95.50204526 185.05247698 -96.37890625 186.296875 C-96.84184082 186.95623047 -97.30477539 187.61558594 -97.78173828 188.29492188 C-100.38852459 191.98794139 -103.03914621 195.64923431 -105.6875 199.3125 C-106.17605469 199.99014404 -106.66460937 200.66778809 -107.16796875 201.3659668 C-108.22050695 202.82354909 -109.28824514 204.27022748 -110.36767578 205.70800781 C-111.82786337 207.77689097 -113.09696045 209.80424013 -114.36279297 211.98730469 C-121.84165861 224.25126799 -131.17177324 227.60455289 -144.5 231.75 C-146.41557361 232.39133742 -148.32965569 233.03714777 -150.2421875 233.6875 C-167.20187454 239.36045429 -167.20187454 239.36045429 -172.25 239.375 C-175.16772461 237.35839844 -175.16772461 237.35839844 -177.25 234.375 C-177.74047852 231.21191406 -177.74047852 231.21191406 -177.56640625 227.640625 C-177.51879083 226.30016199 -177.47211553 224.95966532 -177.42626953 223.61914062 C-177.39430481 222.92312744 -177.36234009 222.22711426 -177.32940674 221.51000977 C-177.22396769 218.67506913 -177.24411682 215.84700037 -177.26596069 213.01062012 C-177.28129006 210.11357499 -177.24576525 207.2180551 -177.20727539 204.32128906 C-177.19402785 202.84999439 -177.19349869 201.37853337 -177.20532227 199.90722656 C-177.27691922 189.61090311 -175.89791795 182.63414172 -169.25 174.375 C-168.28603187 173.0507357 -167.32364165 171.72532046 -166.36328125 170.3984375 C-165.43307199 169.17970098 -164.49941921 167.96358575 -163.5625 166.75 C-158.84939069 160.55460777 -154.30029933 154.26574621 -149.8347168 147.89013672 C-145.55106814 141.77983338 -141.18759571 135.72992332 -136.78930664 129.70166016 C-134.13768582 126.05203571 -131.55707098 122.37016372 -129.06201172 118.61132812 C-128.26741043 117.41546082 -128.26741043 117.41546082 -127.45675659 116.19543457 C-127.05852692 115.59469116 -126.66029724 114.99394775 -126.25 114.375 C-150.0506032 114.28145718 -173.85117874 114.21097202 -197.6519289 114.16775131 C-208.70364346 114.14714759 -219.75524364 114.11906885 -230.80688477 114.07324219 C-240.44224491 114.0333074 -250.0775222 114.00755127 -259.71296281 113.99864602 C-264.81238611 113.99344254 -269.91157241 113.98125809 -275.01091957 113.95207977 C-279.81668409 113.92480571 -284.62211533 113.91657915 -289.42794991 113.92256927 C-291.18587305 113.92147438 -292.94380806 113.91359224 -294.70166397 113.8981781 C-311.37819315 113.75919495 -323.65717608 117.03306292 -334.7109375 130.15625 Z M-68.25 193.375 C-68.25 198.985 -68.25 204.595 -68.25 210.375 C-66.44813232 210.3843457 -64.64626465 210.39369141 -62.78979492 210.40332031 C-56.83842022 210.43883184 -50.88744638 210.49261894 -44.93635082 210.55890274 C-41.32790995 210.59842365 -37.71971477 210.63058898 -34.11108398 210.64599609 C-30.62891485 210.66113307 -27.14742096 210.69552374 -23.66555214 210.74330902 C-21.6897519 210.76538165 -19.71376139 210.76747629 -17.73783875 210.76934814 C-15.93631096 210.79892609 -15.93631096 210.79892609 -14.09838867 210.82910156 C-13.03915695 210.83798401 -11.97992523 210.84686646 -10.88859558 210.85601807 C-8.25 211.375 -8.25 211.375 -6.61000824 212.85536957 C-4.62108186 216.54017036 -4.82782049 220.12315244 -4.85127258 224.20806885 C-4.84462576 225.10986807 -4.83797893 226.01166728 -4.83113068 226.94079375 C-4.81244761 229.96878124 -4.81510956 232.99637543 -4.81762695 236.02441406 C-4.80861305 238.1924699 -4.79828675 240.36052061 -4.78674316 242.52856445 C-4.75910353 248.42071502 -4.74987917 254.31276907 -4.74388909 260.20497608 C-4.73452355 266.3603023 -4.70832166 272.5155559 -4.68388367 278.6708374 C-4.64016486 290.32962627 -4.61165094 301.9884011 -4.58856028 313.64724708 C-4.56153745 326.91919797 -4.51762416 340.19107145 -4.47227156 353.46297121 C-4.37934819 380.76694135 -4.30770268 408.07093433 -4.25 435.375 C0.37 435.375 4.99 435.375 9.75 435.375 C9.84345807 406.58526363 9.91398654 377.79555001 9.95724869 349.00569248 C9.96135465 346.34404554 9.96549332 343.68239869 9.96972656 341.02075195 C9.97130043 340.02841842 9.97130043 340.02841842 9.97290608 339.01603775 C9.98921673 328.97817931 10.01738586 318.94039961 10.05175781 308.90258789 C10.09163752 297.25076212 10.11743571 285.59900463 10.12635398 273.9471125 C10.13156674 267.7780108 10.14381077 261.60910445 10.17292023 255.44006538 C10.20010698 249.63133415 10.20843827 243.8228784 10.20243073 238.01408958 C10.20352949 235.8844414 10.21146372 233.75478383 10.2268219 231.62519073 C10.24680053 228.71154781 10.24191024 225.7989373 10.23101807 222.88526917 C10.24849512 221.62890674 10.24849512 221.62890674 10.26632524 220.34716326 C10.19135018 212.89848016 7.66404909 207.30236919 3.625 201.125 C-4.33579392 193.51032755 -12.47863652 192.66479825 -23.1328125 192.88671875 C-25.07593826 192.89733086 -25.07593826 192.89733086 -27.05831909 192.90815735 C-30.46832354 192.92706218 -33.87722822 192.97601275 -37.2868042 193.03167725 C-40.77959321 193.08323246 -44.27256351 193.1057479 -47.765625 193.13085938 C-54.59424172 193.18415396 -61.42195451 193.27194832 -68.25 193.375 Z M-161.25 203.375 C-161.58 208.985 -161.91 214.595 -162.25 220.375 C-154.12557514 218.24750261 -154.12557514 218.24750261 -146.25 215.375 C-146.25 214.715 -146.25 214.055 -146.25 213.375 C-148.52990679 211.58049272 -150.80763016 209.90133826 -153.1875 208.25 C-153.84685547 207.78207031 -154.50621094 207.31414062 -155.18554688 206.83203125 C-157.97884266 204.45409505 -157.97884266 204.45409505 -161.25 203.375 Z M-235.25 451.375 C-234.44528623 456.37256341 -234.44528623 456.37256341 -231.25 459.375 C-227.68222023 460.56425992 -224.41054511 460.55596582 -220.6953125 460.578125 C-219.58746902 460.58667511 -219.58746902 460.58667511 -218.45724487 460.59539795 C-216.89550199 460.60483645 -215.3337393 460.61137737 -213.77197266 460.61523438 C-211.39059474 460.62493646 -209.01008156 460.65596778 -206.62890625 460.6875 C-205.10938011 460.69403094 -203.58984781 460.69928106 -202.0703125 460.703125 C-201.00757614 460.7216452 -201.00757614 460.7216452 -199.92337036 460.74053955 C-194.31641515 460.71544874 -191.16934569 459.29434569 -187.25 455.375 C-187.25 454.055 -187.25 452.735 -187.25 451.375 C-203.09 451.375 -218.93 451.375 -235.25 451.375 Z " fill="#000000" transform="translate(467.25,9.625)"/>
<path d="M0 0 C1.32260078 -0.0131424 1.32260078 -0.0131424 2.67192078 -0.02655029 C5.58581792 -0.04855272 8.49819688 -0.03398867 11.41210938 -0.01708984 C13.43705537 -0.02045774 15.4619994 -0.02531013 17.48693848 -0.03158569 C21.73058318 -0.03895817 25.97370163 -0.02823925 30.21728516 -0.00488281 C35.65855037 0.02360495 41.09858258 0.00720302 46.53980255 -0.02274513 C50.7211436 -0.04080784 54.90219203 -0.03506475 59.08354187 -0.02210617 C61.0898198 -0.01876933 63.09612425 -0.02286899 65.10237122 -0.03450394 C67.90620344 -0.04719564 70.70803564 -0.02785959 73.51171875 0 C74.34197067 -0.01012115 75.1722226 -0.02024231 76.02763367 -0.03067017 C79.97806327 0.04209851 81.83632921 0.25577607 84.77502441 2.9960022 C86.57611917 6.22029736 86.79819059 8.00560594 86.25585938 11.64697266 C84.47601533 14.78288836 83.73277731 15.48800001 80.25585938 16.64697266 C77.49851549 16.75365291 74.7660766 16.80422711 72.00830078 16.80810547 C71.16733353 16.81307037 70.32636627 16.81803528 69.45991516 16.82315063 C66.67574243 16.83776488 63.89162667 16.84457277 61.10742188 16.85009766 C59.1731262 16.85584939 57.23883055 16.86160712 55.30453491 16.86737061 C51.24761693 16.87787827 47.19071874 16.88372258 43.13378906 16.88720703 C37.93616277 16.89269351 32.73879822 16.91672584 27.54125404 16.94517899 C23.54524979 16.96380441 19.54930862 16.9690109 15.55326462 16.97054291 C13.6371149 16.9735698 11.7209663 16.98159958 9.80485916 16.99472809 C7.12377253 17.01178776 4.44332596 17.00990866 1.76220703 17.00341797 C0.97138229 17.01263275 0.18055756 17.02184753 -0.63423157 17.03134155 C-5.17562052 16.99691091 -8.14391887 16.48821939 -11.74414062 13.64697266 C-13.17076281 10.79372828 -13.0544793 8.81242717 -12.74414062 5.64697266 C-9.61004992 -0.01001302 -5.97245735 -0.07280702 0 0 Z " fill="#000000" transform="translate(180.744140625,180.35302734375)"/>
<path d="M0 0 C1.32260078 -0.0131424 1.32260078 -0.0131424 2.67192078 -0.02655029 C5.58581792 -0.04855272 8.49819688 -0.03398867 11.41210938 -0.01708984 C13.43705537 -0.02045774 15.4619994 -0.02531013 17.48693848 -0.03158569 C21.73058318 -0.03895817 25.97370163 -0.02823925 30.21728516 -0.00488281 C35.65855037 0.02360495 41.09858258 0.00720302 46.53980255 -0.02274513 C50.7211436 -0.04080784 54.90219203 -0.03506475 59.08354187 -0.02210617 C61.0898198 -0.01876933 63.09612425 -0.02286899 65.10237122 -0.03450394 C67.90620344 -0.04719564 70.70803564 -0.02785959 73.51171875 0 C74.34197067 -0.01012115 75.1722226 -0.02024231 76.02763367 -0.03067017 C79.97710199 0.0420808 81.83509909 0.25401971 84.77111816 2.9960022 C86.58736895 6.23887519 86.87903381 7.98582288 86.25585938 11.64697266 C84.38876027 13.94972822 82.89938196 15.32521136 80.25585938 16.64697266 C77.53633231 16.75579488 74.84202361 16.80429718 72.12182617 16.80810547 C70.86059433 16.81555283 70.86059433 16.81555283 69.57388306 16.82315063 C66.78427317 16.83778976 63.99472016 16.8445775 61.20507812 16.85009766 C59.26935321 16.85584809 57.33362832 16.86160584 55.39790344 16.86737061 C51.33500909 16.87788587 47.27213456 16.88372495 43.20922852 16.88720703 C38.00372645 16.89268993 32.7984862 16.9167114 27.59306622 16.94517899 C23.59277076 16.96380629 19.59253831 16.96901104 15.59220314 16.97054291 C13.67326235 16.97357024 11.7543227 16.98160149 9.83542442 16.99472809 C7.14943947 17.01178892 4.46409338 17.00990817 1.77807617 17.00341797 C0.98568039 17.01263275 0.19328461 17.02184753 -0.62312317 17.03134155 C-5.16819027 16.99695069 -8.14128777 16.4916851 -11.74414062 13.64697266 C-13.17076281 10.79372828 -13.0544793 8.81242717 -12.74414062 5.64697266 C-9.61004992 -0.01001302 -5.97245735 -0.07280702 0 0 Z " fill="#000000" transform="translate(180.744140625,233.35302734375)"/>
</svg>
